<svg xmlns="http://www.w3.org/2000/svg" fill="none" viewBox="0 0 120 120"><defs><linearGradient id="a" x1="0" x2="120" y1="0" y2="120" gradientUnits="userSpaceOnUse"><stop offset="0%" stop-color="#23c88a" stop-opacity=".12"/><stop offset="100%" stop-color="#50df8e" stop-opacity=".06"/></linearGradient><linearGradient id="b" x1="0" x2="120" y1="0" y2="120" gradientUnits="userSpaceOnUse"><stop offset="0%" stop-color="#50df8e"/><stop offset="100%" stop-color="#23c88a"/></linearGradient></defs><rect width="120" height="120" fill="url(#a)" rx="20"/><circle cx="18" cy="24" r="2" fill="#50df8e" opacity=".3"/><circle cx="102" cy="28" r="1.5" fill="#7feca2" opacity=".3"/><circle cx="16" cy="98" r="1.5" fill="#5ae39c" opacity=".2"/><circle cx="104" cy="100" r="2" fill="#50df8e" opacity=".2"/><rect width="72" height="52" x="24" y="34" stroke="url(#b)" stroke-width="2.5" rx="5"/><path stroke="url(#b)" stroke-width="2.5" d="M24 48h72" opacity=".5"/><circle cx="32" cy="41" r="2" fill="#50df8e"/><circle cx="39" cy="41" r="2" fill="#50df8e" opacity=".7"/><circle cx="46" cy="41" r="2" fill="#50df8e" opacity=".4"/><path stroke="#50df8e" stroke-linecap="round" stroke-linejoin="round" stroke-width="2.5" d="m34 62 5 5-5 5m10 0h6" opacity=".8"/><path stroke="#7feca2" stroke-linecap="round" stroke-linejoin="round" stroke-width="2" d="M60 54h20q6 0 6 6v8q0 6-6 6h-4l-4 4v-4H60q-6 0-6-6v-8q0-6 6-6" opacity=".9"/><circle cx="66" cy="64" r="1.5" fill="#7feca2" opacity=".8"/><circle cx="73" cy="64" r="1.5" fill="#7feca2" opacity=".8"/><circle cx="80" cy="64" r="1.5" fill="#7feca2" opacity=".8"/></svg>