<svg xmlns="http://www.w3.org/2000/svg" fill="none" viewBox="0 0 120 120"><defs><linearGradient id="a" x1="0" x2="120" y1="0" y2="120" gradientUnits="userSpaceOnUse"><stop offset="0%" stop-color="#23c88a" stop-opacity=".12"/><stop offset="100%" stop-color="#50df8e" stop-opacity=".06"/></linearGradient><linearGradient id="b" x1="0" x2="120" y1="0" y2="120" gradientUnits="userSpaceOnUse"><stop offset="0%" stop-color="#50df8e"/><stop offset="100%" stop-color="#23c88a"/></linearGradient></defs><rect width="120" height="120" fill="url(#a)" rx="20"/><circle cx="18" cy="24" r="2" fill="#50df8e" opacity=".3"/><circle cx="102" cy="28" r="1.5" fill="#7feca2" opacity=".3"/><circle cx="16" cy="98" r="1.5" fill="#5ae39c" opacity=".2"/><circle cx="104" cy="100" r="2" fill="#50df8e" opacity=".2"/><rect width="36" height="26" x="42" y="24" stroke="url(#b)" stroke-width="2" rx="4"/><path stroke="url(#b)" stroke-width="2" d="M42 32h36" opacity=".5"/><path stroke="#50df8e" stroke-linecap="round" stroke-linejoin="round" stroke-width="1.5" d="m46 41 3 3-3 3"/><rect width="32" height="24" x="20" y="68" stroke="#7feca2" stroke-width="2" rx="4"/><path stroke="#7feca2" stroke-width="2" d="M20 76h32" opacity=".5"/><path stroke="#7feca2" stroke-linecap="round" stroke-linejoin="round" stroke-width="1.5" d="m24 84 3 3-3 3"/><rect width="32" height="24" x="68" y="68" stroke="#7feca2" stroke-width="2" rx="4"/><path stroke="#7feca2" stroke-width="2" d="M68 76h32" opacity=".5"/><path stroke="#7feca2" stroke-linecap="round" stroke-linejoin="round" stroke-width="1.5" d="m72 84 3 3-3 3"/><path stroke="url(#b)" stroke-width="2" d="M60 50v10H36v8" opacity=".6"/><path stroke="url(#b)" stroke-width="2" d="M60 60h24v8" opacity=".6"/></svg>