<svg xmlns="http://www.w3.org/2000/svg" fill="none" viewBox="0 0 120 120"><defs><linearGradient id="a" x1="0" x2="120" y1="0" y2="120" gradientUnits="userSpaceOnUse"><stop offset="0%" stop-color="#23c88a" stop-opacity=".12"/><stop offset="100%" stop-color="#50df8e" stop-opacity=".06"/></linearGradient><linearGradient id="b" x1="0" x2="120" y1="0" y2="120" gradientUnits="userSpaceOnUse"><stop offset="0%" stop-color="#50df8e"/><stop offset="100%" stop-color="#23c88a"/></linearGradient></defs><rect width="120" height="120" fill="url(#a)" rx="20"/><path stroke="#7feca2" stroke-width="1.5" d="m36 52 24-16m24 16L60 36" opacity=".35"/><path stroke="#7feca2" d="M36 52h48" opacity=".2"/><circle cx="60" cy="32" r="9" fill="url(#b)" opacity=".85"/><circle cx="60" cy="27" r="4" fill="#fff" opacity=".35"/><path fill="#fff" d="M52 37q0-5 8-5t8 5" opacity=".2"/><circle cx="36" cy="58" r="8" fill="#23c88a" opacity=".65"/><circle cx="36" cy="53" r="3.5" fill="#fff" opacity=".3"/><path fill="#fff" d="M29 63q0-5 7-5t7 5" opacity=".18"/><circle cx="84" cy="58" r="8" fill="#50df8e" opacity=".65"/><circle cx="84" cy="53" r="3.5" fill="#fff" opacity=".3"/><path fill="#fff" d="M77 63q0-5 7-5t7 5" opacity=".18"/><path fill="url(#b)" d="M54 86c0-6 6-8 6-3 0-5 6-3 6 3s-6 11-6 11-6-5-6-11" opacity=".55"/><path stroke="#7feca2" stroke-linecap="round" stroke-linejoin="round" stroke-width="2" d="m44 82-6 8 6 8m32-16 6 8-6 8" opacity=".4"/><circle cx="18" cy="22" r="2" fill="#50df8e" opacity=".3"/><circle cx="102" cy="20" r="1.5" fill="#7feca2" opacity=".3"/><circle cx="14" cy="102" r="1.5" fill="#5ae39c" opacity=".2"/><circle cx="106" cy="104" r="2" fill="#50df8e" opacity=".2"/></svg>