<svg xmlns="http://www.w3.org/2000/svg" fill="none" viewBox="0 0 900 200"><defs><radialGradient id="b" cx="180" cy="100" r="280" gradientUnits="userSpaceOnUse"><stop offset="0%" stop-color="#23c88a" stop-opacity=".07"/><stop offset="100%" stop-color="#23c88a" stop-opacity="0"/></radialGradient><linearGradient id="a" x1="0" x2="900" y1="0" y2="200" gradientUnits="userSpaceOnUse"><stop offset="0%" stop-color="#0d1117"/><stop offset="50%" stop-color="#161b22"/><stop offset="100%" stop-color="#0d1117"/></linearGradient></defs><rect width="900" height="200" fill="url(#a)" stroke="#30363d" rx="12"/><rect width="900" height="200" fill="url(#b)" rx="12"/><path stroke="#23c88a" stroke-width=".5" d="M0 50h900M0 100h900M0 150h900M150 0v200M300 0v200M450 0v200M600 0v200M750 0v200" opacity=".04"/><path fill="#23c88a" d="M136 16 58 184h156z" opacity=".85"/><path fill="#50df8e" d="m58 16 138 158.4h18V16z" opacity=".8"/><path fill="#7feca2" d="m58 30.4 62.4 115.2-62.4-36z" opacity=".85"/><path fill="#86f4a6" d="m58 30.4 12 19.2 33.6 16.8L58 109.6z" opacity=".8"/><path fill="#5ae39c" d="m142 10-16.8 42-62.4-42z" opacity=".8"/><text x="280" y="80" fill="#e6edf3" font-family="Arial, Helvetica, sans-serif" font-size="44" font-weight="700" letter-spacing=".5">Z-Shell</text><text x="282" y="113" fill="#7feca2" font-family="Arial, Helvetica, sans-serif" font-size="17" opacity=".85">A Swiss Army Knife for Zsh — Unix Shell</text><g transform="translate(280 128)"><rect width="106" height="28" fill="#23c88a" stroke="#23c88a" stroke-opacity=".25" stroke-width=".6" opacity=".1" rx="14"/><text x="53" y="19" fill="#7feca2" font-family="Arial, Helvetica, sans-serif" font-size="11" font-weight="500" text-anchor="middle">Open Source</text><rect width="94" height="28" x="116" fill="#23c88a" stroke="#23c88a" stroke-opacity=".25" stroke-width=".6" opacity=".1" rx="14"/><text x="163" y="19" fill="#7feca2" font-family="Arial, Helvetica, sans-serif" font-size="11" font-weight="500" text-anchor="middle">90+ Repos</text><rect width="108" height="28" x="220" fill="#23c88a" stroke="#23c88a" stroke-opacity=".25" stroke-width=".6" opacity=".1" rx="14"/><text x="274" y="19" fill="#7feca2" font-family="Arial, Helvetica, sans-serif" font-size="11" font-weight="500" text-anchor="middle">Zsh Tooling</text></g><circle cx="720" cy="42" r="2.5" fill="#23c88a" opacity=".2"/><circle cx="750" cy="62" r="1.5" fill="#50df8e" opacity=".25"/><circle cx="780" cy="38" r="1" fill="#7feca2" opacity=".3"/><circle cx="700" cy="78" r="2" fill="#5ae39c" opacity=".15"/><circle cx="810" cy="52" r="1.5" fill="#50df8e" opacity=".2"/><circle cx="840" cy="72" r="2" fill="#23c88a" opacity=".15"/><circle cx="760" cy="92" r="1" fill="#7feca2" opacity=".2"/><circle cx="830" cy="98" r="1.5" fill="#5ae39c" opacity=".15"/><circle cx="870" cy="42" r="1" fill="#50df8e" opacity=".2"/><circle cx="690" cy="118" r="2" fill="#23c88a" opacity=".1"/><circle cx="850" cy="128" r="1.5" fill="#50df8e" opacity=".12"/><path fill="#23c88a" d="m770 118-5 10h10z" opacity=".12"/><path fill="#50df8e" d="m820 148-5 10h10z" opacity=".08"/><rect width="8" height="8" x="740" y="140" fill="#7feca2" opacity=".08" rx="2" transform="rotate(45 744 144)"/></svg>